<svg xmlns="http://www.w3.org/2000/svg" version="1.1" xmlns:xlink="http://www.w3.org/1999/xlink" xmlns:svgjs="http://svgjs.dev/svgjs" width="1440" height="599" preserveAspectRatio="none" viewBox="0 0 1440 599"><g mask="url(&quot;#SvgjsMask1067&quot;)" fill="none"><path d="M35.545,105.165C59.137,104.277,77.285,86.905,89.119,66.476C100.989,45.984,107.357,21.417,96.137,0.561C84.404,-21.249,60.299,-33.883,35.545,-33.111C12.005,-32.376,-6.904,-16.157,-18.834,4.149C-30.955,24.779,-36.841,49.721,-25.5,70.789C-13.636,92.828,10.534,106.106,35.545,105.165" fill="rgba(71, 142, 220, 0.4)" class="triangle-float1"></path><path d="M17.076,70.716C34.442,69.276,45.43,53.529,53.182,37.922C59.926,24.345,61.625,8.853,54.435,-4.494C46.855,-18.565,33.041,-28.34,17.076,-29.104C-0.315,-29.936,-17.535,-22.982,-27.038,-8.393C-37.464,7.612,-40.444,28.231,-31.141,44.914C-21.625,61.978,-2.395,72.331,17.076,70.716" fill="rgba(71, 142, 220, 0.4)" class="triangle-float2"></path><path d="M29.293,95.892C50.929,95.156,64.753,74.701,74.228,55.236C82.355,38.54,83.685,19.33,74.383,3.259C65.098,-12.783,47.803,-21.439,29.293,-22.401C8.681,-23.472,-13.775,-19.391,-24.716,-1.889C-36.168,16.431,-31.718,39.574,-21.272,58.486C-10.408,78.156,6.835,96.656,29.293,95.892" fill="rgba(71, 142, 220, 0.4)" class="triangle-float1"></path><path d="M1349.139,80.666C1367.259,79.894,1383.028,69.445,1392.219,53.811C1401.55,37.939,1403.702,18.679,1395.174,2.361C1385.992,-15.208,1368.924,-27.373,1349.139,-28.619C1326.922,-30.018,1302.978,-23.417,1291.836,-4.145C1280.686,15.142,1286.72,39.317,1299.192,57.776C1310.181,74.04,1329.528,81.502,1349.139,80.666" fill="rgba(71, 142, 220, 0.4)" class="triangle-float2"></path><path d="M1445.502,257.938C1499.142,261.335,1559.272,253.036,1587.068,207.035C1615.505,159.972,1597.239,101.171,1568.586,54.239C1541.35,9.628,1497.767,-24.273,1445.502,-24.843C1392.312,-25.423,1342.458,4.433,1317.676,51.501C1294.357,95.791,1305.571,148.321,1331.922,190.877C1356.73,230.941,1398.473,254.96,1445.502,257.938" fill="rgba(71, 142, 220, 0.4)" class="triangle-float1"></path><path d="M1474.789,328.458C1538.37,330.964,1601.672,301.306,1632.452,245.616C1662.401,191.428,1647.652,126.272,1615.919,73.108C1585.107,21.487,1534.9,-19.374,1474.789,-18.528C1415.884,-17.699,1368.547,25.247,1340.373,76.984C1313.543,126.252,1310.836,184.504,1337.281,233.98C1365.379,286.547,1415.23,326.11,1474.789,328.458" fill="rgba(71, 142, 220, 0.4)" class="triangle-float2"></path><path d="M142.262,790.499C200.1,792.204,249.336,749.994,275.466,698.367C299.216,651.442,288.429,597.787,263.138,551.674C236.6,503.288,197.431,456.888,142.262,455.504C85.278,454.074,36.333,494.571,10.4,545.332C-13.335,591.789,-2.708,644.949,22.003,690.894C48.429,740.026,86.498,788.855,142.262,790.499" fill="rgba(71, 142, 220, 0.4)" class="triangle-float2"></path><path d="M29.079,576.796C53.037,577.692,74.336,562.086,85.893,541.08C97.039,520.822,96.9,495.786,84.327,476.381C72.702,458.44,50.456,453.611,29.079,453.395C7.198,453.174,-16.935,456.448,-28.141,475.243C-39.536,494.354,-31.747,517.705,-20.825,537.09C-9.641,556.94,6.311,575.945,29.079,576.796" fill="rgba(71, 142, 220, 0.4)" class="triangle-float3"></path><path d="M91.996,675.37C134.167,676.325,181.068,671.314,203.066,635.322C225.721,598.255,213.818,550.971,190.389,514.388C168.902,480.837,131.784,459.816,91.996,461.895C55.318,463.811,29.038,492.448,9.932,523.816C-10.258,556.964,-29.168,596.349,-10.687,630.48C8.377,665.688,51.968,674.463,91.996,675.37" fill="rgba(71, 142, 220, 0.4)" class="triangle-float2"></path><path d="M1468.308,790.874C1522.474,786.077,1562.03,744.161,1587.361,696.043C1610.7,651.709,1613.421,601.185,1592.018,555.884C1566.567,502.016,1527.767,447.816,1468.308,444.056C1403.887,439.982,1346.789,482.614,1314.163,538.312C1281.152,594.668,1272.091,665.199,1306.116,720.949C1338.989,774.811,1405.453,796.44,1468.308,790.874" fill="rgba(71, 142, 220, 0.4)" class="triangle-float3"></path><path d="M1366.692,589.757C1391.117,589.082,1415.339,581.917,1429.065,561.703C1444.694,538.688,1453.05,507.935,1438.252,484.377C1424.027,461.731,1393.435,462.297,1366.692,462.407C1340.231,462.516,1310.827,462.947,1296.144,484.961C1280.208,508.853,1282.01,541.5,1298.048,565.324C1312.585,586.918,1340.671,590.476,1366.692,589.757" fill="rgba(71, 142, 220, 0.4)" class="triangle-float2"></path><path d="M1407.981,663.806C1442.336,661.435,1473.22,644.402,1491.073,614.954C1509.664,584.289,1513.888,547.131,1498.291,514.84C1480.352,477.699,1449.223,443.489,1407.981,442.921C1366.039,442.344,1334.056,475.866,1313.259,512.293C1292.675,548.346,1280.318,592.779,1302.325,627.981C1323.454,661.778,1368.218,666.55,1407.981,663.806" fill="rgba(71, 142, 220, 0.4)" class="triangle-float2"></path></g><defs><mask id="SvgjsMask1067"><rect width="1440" height="599" fill="#ffffff"></rect></mask><style>
                @keyframes float1 {
                    0%{transform: translate(0, 0)}
                    50%{transform: translate(-10px, 0)}
                    100%{transform: translate(0, 0)}
                }

                .triangle-float1 {
                    animation: float1 5s infinite;
                }

                @keyframes float2 {
                    0%{transform: translate(0, 0)}
                    50%{transform: translate(-5px, -5px)}
                    100%{transform: translate(0, 0)}
                }

                .triangle-float2 {
                    animation: float2 4s infinite;
                }

                @keyframes float3 {
                    0%{transform: translate(0, 0)}
                    50%{transform: translate(0, -10px)}
                    100%{transform: translate(0, 0)}
                }

                .triangle-float3 {
                    animation: float3 6s infinite;
                }
            </style></defs></svg>