<svg xmlns="http://www.w3.org/2000/svg" version="1.1" xmlns:xlink="http://www.w3.org/1999/xlink" xmlns:svgjs="http://svgjs.dev/svgjs" width="1200" height="600" preserveAspectRatio="none" viewBox="0 0 1200 600" transform="rotate(180)"><g mask="url(&quot;#SvgjsMask1094&quot;)" fill="none"><rect width="1200" height="600" x="0" y="0" fill="rgba(181, 217, 255, 1)"></rect><path d="M0,496.275C91.268,498.124,144.48,393.226,224.631,349.533C313.5,301.087,448.276,315.82,495.372,226.229C542.019,137.492,454.806,35.883,441.762,-63.516C428.493,-164.626,469.85,-274.425,418.138,-362.318C363.684,-454.872,263.033,-514.699,159.513,-543.25C56.854,-571.564,-59.087,-570.668,-152.607,-519.731C-240.498,-471.86,-275.775,-368.251,-323.396,-280.224C-361.6,-209.604,-385.399,-136.323,-402.467,-57.866C-420.831,26.551,-462.913,116.433,-426.755,194.893C-390.608,273.329,-289.403,290.729,-218.858,340.549C-144.21,393.266,-91.367,494.424,0,496.275" fill="#89c3ff"></path><path d="M1200 893.861C1254.004 891.369 1289.526 838.8779999999999 1332.135 805.606 1370.56 775.601 1418.171 753.218 1437.454 708.442 1456.601 663.982 1443.031 613.954 1435.248 566.176 1427.605 519.253 1414.065 475.529 1392.605 433.10699999999997 1365.084 378.70500000000004 1352.347 296.887 1292.681 284.357 1231.476 271.504 1188.773 346.902 1135.119 379.03499999999997 1096.844 401.95799999999997 1057.344 418.34000000000003 1022.481 446.179 980.342 479.829 922.289 505.752 910.527 558.38 898.752 611.066 937.1220000000001 660.96 964.017 707.77 988.789 750.885 1020.745 787.381 1059.79 818.171 1102.357 851.738 1145.848 896.3589999999999 1200 893.861" fill="#e1efff"></path></g><defs><mask id="SvgjsMask1094"><rect width="1200" height="600" fill="#ffffff"></rect></mask></defs></svg>