<svg class=" shadow-md dark:border-slate-700" viewBox="0 0 414.48 552.64" style="width: 414.48px; height: 552.64px;" xmlns="http://www.w3.org/2000/svg" preserveAspectRatio="none" transform="rotate(180)"><defs><filter id="blur"><feGaussianBlur in="SourceGraphic" stdDeviation="0"></feGaussianBlur></filter></defs><rect class="bg" id="bg" x="0" y="0" width="414.48" height="552.64" fill="#ffffff"></rect><g filter="url(#blur)" transform="" transform-origin="center"><defs><filter id="f1" x="-200%" y="-200%" width="500%" height="500%"><feGaussianBlur stdDeviation="25"></feGaussianBlur></filter></defs><g transform="translate(-207.28208487438593 -64.25755105324981) rotate(6 138.11791512561405 108.44244894675018 )"><rect x="8" y="8" opacity="0.4" width="2072.3999999999996" height="345.4" fill="#ffffff" filter="url(#f1)"></rect><rect x="-8" y="-8" opacity="0.4" width="2072.3999999999996" height="345.4" fill="#f8f9ff" filter="url(#f1)"></rect><rect x="0" y="0" width="2072.3999999999996" height="345.4" fill="#f1f3ff"></rect></g><g transform="translate(-275.0186487928436 112.202230890657) rotate(2 70.3813512071564 284.902230890657 )"><rect x="8" y="8" opacity="0.4" width="2072.3999999999996" height="345.4" fill="#eaedff" filter="url(#f1)"></rect><rect x="-8" y="-8" opacity="0.4" width="2072.3999999999996" height="345.4" fill="#e4e8ff" filter="url(#f1)"></rect><rect x="0" y="0" width="2072.3999999999996" height="345.4" fill="#7D90FF"></rect></g><g transform="translate(-440.33402862008336 203.83804227324856) rotate(10 -94.93402862008335 376.53804227324855 )"><rect x="8" y="8" opacity="0.4" width="2072.3999999999996" height="345.4" fill="#d6dcff" filter="url(#f1)"></rect><rect x="-8" y="-8" opacity="0.4" width="2072.3999999999996" height="345.4" fill="#cfd6ff" filter="url(#f1)"></rect><rect x="0" y="0" width="2072.3999999999996" height="345.4" fill="#c8d0ff"></rect></g><g transform="translate(-625.8753208591461 167.7724685300077) rotate(19 -280.47532085914617 340.4724685300077 )"><rect x="8" y="8" opacity="0.4" width="2072.3999999999996" height="345.4" fill="#c1caff" filter="url(#f1)"></rect><rect x="-8" y="-8" opacity="0.4" width="2072.3999999999996" height="345.4" fill="#bbc5ff" filter="url(#f1)"></rect><rect x="0" y="0" width="2072.3999999999996" height="345.4" fill="#b4bfff"></rect></g><g transform="translate(-744.8256928096032 20.880992439601528) rotate(22 -399.4256928096032 193.58099243960152 )"><rect x="8" y="8" opacity="0.4" width="2072.3999999999996" height="345.4" fill="#adb9ff" filter="url(#f1)"></rect><rect x="-8" y="-8" opacity="0.4" width="2072.3999999999996" height="345.4" fill="#a6b3ff" filter="url(#f1)"></rect><rect x="0" y="0" width="2072.3999999999996" height="345.4" fill="#B9CCFF"></rect></g><g transform="translate(-741.5269434497068 -168.1042318183574) rotate(15 -396.12694344970674 4.5957681816425975 )"><rect x="8" y="8" opacity="0.4" width="2072.3999999999996" height="345.4" fill="black" filter="url(#f1)"></rect><rect x="-8" y="-8" opacity="0.4" width="2072.3999999999996" height="345.4" fill="black" filter="url(#f1)"></rect><rect x="0" y="0" width="2072.3999999999996" height="345.4" fill="#FFFFFF"></rect></g><g transform="translate(-617.5225942664678 -310.7549174767579) rotate(12 -272.1225942664678 -138.05491747675788 )"><rect x="8" y="8" opacity="0.4" width="2072.3999999999996" height="345.4" fill="black" filter="url(#f1)"></rect><rect x="-8" y="-8" opacity="0.4" width="2072.3999999999996" height="345.4" fill="black" filter="url(#f1)"></rect><rect x="0" y="0" width="2072.3999999999996" height="345.4" fill="#7D90FF"></rect></g><g transform="translate(-430.835658397553 -340.32322333025843) rotate(6 -85.43565839755303 -167.62322333025844 )"><rect x="8" y="8" opacity="0.4" width="2072.3999999999996" height="345.4" fill="black" filter="url(#f1)"></rect><rect x="-8" y="-8" opacity="0.4" width="2072.3999999999996" height="345.4" fill="black" filter="url(#f1)"></rect><rect x="0" y="0" width="2072.3999999999996" height="345.4" fill="#2B20E4"></rect></g><g transform="translate(-268.8190279302098 -242.97381045489118) rotate(1 76.58097206979016 -70.27381045489119 )"><rect x="8" y="8" opacity="0.4" width="2072.3999999999996" height="345.4" fill="black" filter="url(#f1)"></rect><rect x="-8" y="-8" opacity="0.4" width="2072.3999999999996" height="345.4" fill="black" filter="url(#f1)"></rect><rect x="0" y="0" width="2072.3999999999996" height="345.4" fill="#2447B4"></rect></g></g></svg>