<svg xmlns="http://www.w3.org/2000/svg" version="1.1" xmlns:xlink="http://www.w3.org/1999/xlink" xmlns:svgjs="http://svgjs.dev/svgjs" width="1440" height="560" preserveAspectRatio="none" viewBox="0 0 1440 560"><g mask="url(&quot;#SvgjsMask1068&quot;)" fill="none"><rect width="1440" height="560" x="0" y="0" fill="url(&quot;#SvgjsLinearGradient1069&quot;)"></rect><path d="M1440 0L935.9300000000001 0L1440 117.53z" fill="rgba(255, 255, 255, .1)"></path><path d="M935.9300000000001 0L1440 117.53L1440 342.28999999999996L546.3000000000001 0z" fill="rgba(255, 255, 255, .075)"></path><path d="M546.3 0L1440 342.28999999999996L1440 369.15L448.34999999999997 0z" fill="rgba(255, 255, 255, .05)"></path><path d="M448.3499999999999 0L1440 369.15L1440 391.52L381.7299999999999 0z" fill="rgba(255, 255, 255, .025)"></path><path d="M0 560L275.93 560L0 395z" fill="rgba(0, 0, 0, .1)"></path><path d="M0 395L275.93 560L853.53 560L0 377.43z" fill="rgba(0, 0, 0, .075)"></path><path d="M0 377.43L853.53 560L930.62 560L0 239.78z" fill="rgba(0, 0, 0, .05)"></path><path d="M0 239.77999999999997L930.62 560L940.02 560L0 163.45z" fill="rgba(0, 0, 0, .025)"></path></g><defs><mask id="SvgjsMask1068"><rect width="1440" height="560" fill="#ffffff"></rect></mask><linearGradient x1="0%" y1="50%" x2="100%" y2="50%" gradientUnits="userSpaceOnUse" id="SvgjsLinearGradient1069"><stop stop-color="rgba(255, 255, 255, 1)" offset="0"></stop><stop stop-color="rgba(0, 69, 158, 1)" offset="1"></stop></linearGradient></defs></svg>