<svg class=" shadow-md dark:border-slate-700" viewBox="0 0 1012 506" style="width: 1012px; height: 506px;" xmlns="http://www.w3.org/2000/svg" preserveAspectRatio="none"><defs><filter id="blur"><feGaussianBlur in="SourceGraphic" stdDeviation="0"/></filter></defs><rect class="bg" id="bg" x="0" y="0" width="1012" height="506" fill="#ffffff"/><g filter="url(#blur)" transform="" transform-origin="center"><g transform="rotate(0 506 253)"><path d="M -202.00 -40.00 S -212.00 -85.00&#10;            0.00 -40.00 192.00 -80.00&#10;            404.00 -40.00 470.00 -71.00&#10;            808.00 -40.00 1000.00 -72.00&#10;            1212.00 -40.00 1245.00 -63.00&#10;            1616.00 -40.00 h 110 V 706 H -202.00 Z" fill="#ffffff" id="0"/><path d="M -202.00 6.00 S -212.00 -17.00&#10;            0.00 6.00 192.00 -24.00&#10;            404.00 6.00 470.00 -33.00&#10;            808.00 6.00 906.00 -20.00&#10;            1212.00 6.00 1218.00 -17.00&#10;            1616.00 6.00 h 110 V 706 H -202.00 Z" fill="#f1f6ff" id="1"/><path d="M -202.00 52.00 S -315.00 29.00&#10;            0.00 52.00 192.00 29.00&#10;            404.00 52.00 566.00 8.00&#10;            808.00 52.00 869.00 29.00&#10;            1212.00 52.00 1338.00 29.00&#10;            1616.00 52.00 h 110 V 706 H -202.00 Z" fill="#e3eeff" id="2"/><path d="M -202.00 98.00 S -264.00 75.00&#10;            0.00 98.00 192.00 67.00&#10;            404.00 98.00 596.00 75.00&#10;            808.00 98.00 1000.00 72.00&#10;            1212.00 98.00 1404.00 75.00&#10;            1616.00 98.00 h 110 V 706 H -202.00 Z" fill="#d4e5ff" id="3"/><path d="M -202.00 144.00 S -362.00 121.00&#10;            0.00 144.00 192.00 119.00&#10;            404.00 144.00 596.00 116.00&#10;            808.00 144.00 1000.00 121.00&#10;            1212.00 144.00 1356.00 105.00&#10;            1616.00 144.00 h 110 V 706 H -202.00 Z" fill="#c6dcff" id="4"/><path id="5" d="M -202.00 190.00 S -296.00 155.00&#10;            0.00 190.00 192.00 161.00&#10;            404.00 190.00 596.00 165.00&#10;            808.00 190.00 905.00 167.00&#10;            1212.00 190.00 1215.00 167.00&#10;            1616.00 190.00 h 110 V 706 H -202.00 Z" fill="#b8d4ff"/><path id="6" d="M -202.00 236.00 S -212.00 213.00&#10;            0.00 236.00 31.00 206.00&#10;            404.00 236.00 461.00 192.00&#10;            808.00 236.00 1000.00 209.00&#10;            1212.00 236.00 1372.00 200.00&#10;            1616.00 236.00 h 110 V 706 H -202.00 Z" fill="#aacbff"/><path id="7" d="M -202.00 282.00 S -271.00 259.00&#10;            0.00 282.00 152.00 241.00&#10;            404.00 282.00 585.00 259.00&#10;            808.00 282.00 1000.00 237.00&#10;            1212.00 282.00 1394.00 259.00&#10;            1616.00 282.00 h 110 V 706 H -202.00 Z" fill="#9cc3ff"/><path id="8" d="M -202.00 328.00 S -212.00 296.00&#10;            0.00 328.00 192.00 305.00&#10;            404.00 328.00 555.00 305.00&#10;            808.00 328.00 939.00 305.00&#10;            1212.00 328.00 1404.00 289.00&#10;            1616.00 328.00 h 110 V 706 H -202.00 Z" fill="#8dbaff"/><path id="9" d="M -202.00 374.00 S -212.00 344.00&#10;            0.00 374.00 192.00 346.00&#10;            404.00 374.00 596.00 343.00&#10;            808.00 374.00 1000.00 338.00&#10;            1212.00 374.00 1248.00 351.00&#10;            1616.00 374.00 h 110 V 706 H -202.00 Z" fill="#7fb1ff"/><path id="10" d="M -202.00 420.00 S -413.00 397.00&#10;            0.00 420.00 192.00 397.00&#10;            404.00 420.00 596.00 397.00&#10;            808.00 420.00 968.00 396.00&#10;            1212.00 420.00 1391.00 378.00&#10;            1616.00 420.00 h 110 V 706 H -202.00 Z" fill="#71a9ff"/><path id="11" d="M -202.00 466.00 S -393.00 443.00&#10;            0.00 466.00 68.00 432.00&#10;            404.00 466.00 461.00 443.00&#10;            808.00 466.00 850.00 442.00&#10;            1212.00 466.00 1329.00 443.00&#10;            1616.00 466.00 h 110 V 706 H -202.00 Z" fill="#63a0ff"/></g></g></svg>