<svg class=" shadow-md dark:border-slate-700" viewBox="0 0 1012 506" style="width: 1012px; height: 506px;" xmlns="http://www.w3.org/2000/svg" preserveAspectRatio="none"><defs><filter id="blur"><feGaussianBlur in="SourceGraphic" stdDeviation="0"/></filter></defs><rect class="bg" id="bg" x="0" y="0" width="1012" height="506" fill="#ffffff"/><g filter="url(#blur)" transform="" transform-origin="center"><g transform="rotate(0 506 253)"><path d="M -151.50 -40.00 S -231.00 -58.07&#10;            0.00 -40.00 75.00 -72.00&#10;            303.00 -40.00 444.50 -63.00&#10;            606.00 -40.00 747.50 -58.07&#10;            909.00 -40.00 1050.50 -69.00&#10;            1212.00 -40.00 1247.00 -59.00&#10;            1515.00 -40.00 h 110 V 706 H -151.50 Z" fill="#1ba4ff" id="0"/><path d="M -151.50 -3.86 S -161.50 -32.86&#10;            0.00 -3.86 141.50 -21.93&#10;            303.00 -3.86 384.00 -21.93&#10;            606.00 -3.86 702.00 -27.86&#10;            909.00 -3.86 1050.50 -30.86&#10;            1212.00 -3.86 1353.50 -21.93&#10;            1515.00 -3.86 h 110 V 706 H -151.50 Z" fill="#1c9cf7" id="1"/><path id="2" d="M -151.50 32.29 S -300.00 3.29&#10;            0.00 32.29 80.00 14.21&#10;            303.00 32.29 444.00 14.21&#10;            606.00 32.29 610.00 8.29&#10;            909.00 32.29 1050.50 3.29&#10;            1212.00 32.29 1353.50 13.29&#10;            1515.00 32.29 h 110 V 706 H -151.50 Z" fill="#1d93ef"/><path id="3" d="M -151.50 68.43 S -161.50 49.43&#10;            0.00 68.43 141.50 50.36&#10;            303.00 68.43 365.00 45.43&#10;            606.00 68.43 703.00 50.36&#10;            909.00 68.43 998.00 40.43&#10;            1212.00 68.43 1353.50 50.36&#10;            1515.00 68.43 h 110 V 706 H -151.50 Z" fill="#1e8be7"/><path id="4" d="M -151.50 104.57 S -161.50 69.57&#10;            0.00 104.57 17.00 86.50&#10;            303.00 104.57 444.50 86.50&#10;            606.00 104.57 657.00 86.50&#10;            909.00 104.57 978.00 80.57&#10;            1212.00 104.57 1243.00 86.50&#10;            1515.00 104.57 h 110 V 706 H -151.50 Z" fill="#1f83df"/><path id="5" d="M -151.50 140.71 S -240.00 108.71&#10;            0.00 140.71 141.50 122.64&#10;            303.00 140.71 415.00 119.71&#10;            606.00 140.71 703.00 122.64&#10;            909.00 140.71 983.00 118.71&#10;            1212.00 140.71 1353.50 122.64&#10;            1515.00 140.71 h 110 V 706 H -151.50 Z" fill="#207bd7"/><path id="6" d="M -151.50 176.86 S -161.50 155.86&#10;            0.00 176.86 51.00 158.79&#10;            303.00 176.86 349.00 146.86&#10;            606.00 176.86 604.00 152.86&#10;            909.00 176.86 903.00 151.86&#10;            1212.00 176.86 1353.50 142.86&#10;            1515.00 176.86 h 110 V 706 H -151.50 Z" fill="#2172cf"/><path id="7" d="M -151.50 213.00 S -161.50 182.00&#10;            0.00 213.00 141.50 194.93&#10;            303.00 213.00 444.50 192.00&#10;            606.00 213.00 614.00 194.93&#10;            909.00 213.00 1050.50 194.93&#10;            1212.00 213.00 1353.50 188.00&#10;            1515.00 213.00 h 110 V 706 H -151.50 Z" fill="#226ac7"/><path id="8" d="M -151.50 249.14 S -189.00 220.14&#10;            0.00 249.14 105.00 213.14&#10;            303.00 249.14 354.00 228.14&#10;            606.00 249.14 747.50 231.07&#10;            909.00 249.14 949.00 231.07&#10;            1212.00 249.14 1353.50 217.14&#10;            1515.00 249.14 h 110 V 706 H -151.50 Z" fill="#2362bf"/><path id="9" d="M -151.50 285.29 S -161.50 267.21&#10;            0.00 285.29 125.00 267.21&#10;            303.00 285.29 444.50 267.21&#10;            606.00 285.29 747.50 267.21&#10;            909.00 285.29 1050.50 265.29&#10;            1212.00 285.29 1353.50 266.29&#10;            1515.00 285.29 h 110 V 706 H -151.50 Z" fill="#2459b8"/><path id="10" d="M -151.50 321.43 S -161.50 291.43&#10;            0.00 321.43 112.00 291.43&#10;            303.00 321.43 331.00 287.43&#10;            606.00 321.43 747.50 303.36&#10;            909.00 321.43 968.00 288.43&#10;            1212.00 321.43 1210.00 299.43&#10;            1515.00 321.43 h 110 V 706 H -151.50 Z" fill="#2551b0"/><path id="11" d="M -151.50 357.57 S -199.00 339.50&#10;            0.00 357.57 141.50 339.50&#10;            303.00 357.57 444.50 335.57&#10;            606.00 357.57 605.00 337.57&#10;            909.00 357.57 965.00 335.57&#10;            1212.00 357.57 1210.00 339.50&#10;            1515.00 357.57 h 110 V 706 H -151.50 Z" fill="#2649a8"/><path id="12" d="M -151.50 393.71 S -161.50 373.71&#10;            0.00 393.71 36.00 375.64&#10;            303.00 393.71 444.50 375.64&#10;            606.00 393.71 722.00 375.64&#10;            909.00 393.71 1050.50 366.71&#10;            1212.00 393.71 1353.50 375.64&#10;            1515.00 393.71 h 110 V 706 H -151.50 Z" fill="#2740a0"/><path id="13" d="M -151.50 429.86 S -161.50 401.86&#10;            0.00 429.86 141.50 411.79&#10;            303.00 429.86 349.00 411.79&#10;            606.00 429.86 638.00 411.79&#10;            909.00 429.86 1009.00 411.79&#10;            1212.00 429.86 1233.00 411.79&#10;            1515.00 429.86 h 110 V 706 H -151.50 Z" fill="#283898"/><path id="14" d="M -151.50 466.00 S -161.50 447.93&#10;            0.00 466.00 141.50 447.93&#10;            303.00 466.00 366.00 447.93&#10;            606.00 466.00 620.00 437.00&#10;            909.00 466.00 1050.50 447.93&#10;            1212.00 466.00 1353.50 447.93&#10;            1515.00 466.00 h 110 V 706 H -151.50 Z" fill="#293090"/></g></g></svg>